<?xml version="1.0" encoding="iso-8859-1"?>
<!-- Generator: Adobe Illustrator 25.4.1, SVG Export Plug-In . SVG Version: 6.00 Build 0)  -->
<svg version="1.1" id="Layer_1" xmlns="http://www.w3.org/2000/svg" xmlns:xlink="http://www.w3.org/1999/xlink" x="0px" y="0px"
	 viewBox="0 0 48 48" style="enable-background:new 0 0 48 48;" xml:space="preserve">
<linearGradient id="SVGID_1_" gradientUnits="userSpaceOnUse" x1="15.1889" y1="-0.2084" x2="32.2756" y2="46.737">
	<stop  offset="0" style="stop-color:#2AA4F4"/>
	<stop  offset="1" style="stop-color:#007AD9"/>
</linearGradient>
<rect x="6" y="6" style="fill:url(#SVGID_1_);" width="36" height="36"/>
<polygon style="fill:#FFFFFF;" points="27.49,22 14.227,22 14.227,25.264 18.984,25.264 18.984,40 22.753,40 22.753,25.264 
	27.49,25.264 "/>
<path style="fill:#FFFFFF;" d="M39.194,26.084c0,0-1.787-1.192-3.807-1.192s-2.747,0.96-2.747,1.986
	c0,2.648,7.381,2.383,7.381,7.712c0,8.209-11.254,4.568-11.254,4.568V35.22c0,0,2.152,1.622,4.733,1.622s2.483-1.688,2.483-1.92
	c0-2.449-7.315-2.449-7.315-7.878c0-7.381,10.658-4.469,10.658-4.469L39.194,26.084z"/>
</svg>